<?xml version="1.0" encoding="UTF-8"?>
<svg id="Layer_1" data-name="Layer 1" xmlns="http://www.w3.org/2000/svg" viewBox="0 0 249.48 198.81">
  <defs>
    <style>
      .cls-1 {
        fill: #31abd2;
      }

      .cls-2 {
        fill: #8e6ca3;
      }

      .cls-3 {
        fill: #67a6ab;
      }
    </style>
  </defs>
  <path class="cls-3" d="m121.9,25.73s.06-.03.1-.04c-.13-.38-.25-.72-.34-1.1-4.14.76-8.31,1.52-12.45,2.32-1.1.04-2.24.13-3.33.17s-2.19.13-3.25.17c-2.49-.13-4.98-.21-7.47-.34-.89-.04-1.77-.13-2.7-.17-.89-.17-1.77-.34-2.66-.51-1.81-.34-3.59-.68-5.4-1.01-11.86-3.08-22.62-8.53-33-14.9-8.31-5.15-17.39-7.77-27.1-5.32C12.26,8.04,5.89,16.74,2.81,28.26c-1.05,3.89-1.76,7.8-2.2,11.7-1.37,11.66-.28,23.35,1.82,34.98,4.98,27.56,14.31,53.64,27.73,78.21,4.9,8.99,10,17.85,17.35,25.2.34.3.63.63.97.93l.17.21c.11-.01.18,0,.28,0,1.04.92,2.08,1.85,3.12,2.77,0,.1.03.16.02.27h.04c.25.21.51.38.76.59,1.14.63,2.28,1.31,3.42,1.94.17.17.34.21.59.21.21-.04.42-.09.63-.13,3.09.56,5.98.15,8.57-1.8.14-.03.28-.06.42-.09l.08-.04c1.27-1.18,2.53-2.36,3.8-3.55.17-.25.34-.46.51-.72.13-.13.21-.25.25-.42,0-.06.02-.12.02-.18,0-.01.02-.01.02-.03,0-.01.01-.02.02-.04,0,.04-.01.08-.02.12,1.33-2.9,2.65-5.81,3.98-8.71.01,0,.02-.02.03-.03.38-.93.72-1.9,1.1-2.83.13-.21.17-.42.13-.63.25-.72.46-1.39.68-2.07.17-.46.38-.89.55-1.35,0-.03,0-.05-.01-.08,0-.02.02-.04.03-.07,2.28-4.06,4.6-8.16,6.88-12.18.04-.03.08-.06.11-.08l.04-.04c.02-.05.04-.1.06-.14,5.59-3.6,11.67-3.1,17.83-1.67.01-.05.02-.09.03-.14.02,0,.03,0,.05.01.08-.3.13-.59.21-.89-2.79-1.18-5.57-2.32-8.4-3.5-8.06-2.83-13.55-1.69-18.65,4.98-3.21,4.18-5.57,9.07-8.06,13.76-4.14,7.98-8.1,8.91-15.7,2.49-.76-.63-1.39-1.43-2.07-2.19-6.88-8.19-11.56-17.68-15.74-27.39-9.24-21.44-15.7-43.73-18.4-66.9-1.14-9.74-1.47-19.85-.05-29.5,2.16-14.06,11.16-20.8,24.99-18.02,5.53,1.1,10.8,4.01,15.95,6.54,18.57,9.2,37.31,9.92,56.39,1.86.25-.17.55-.3.89-.34l.04.04c0-.06-.02-.09-.03-.13,2.61-1.1,5.27-2.19,7.92-3.29-.01-.06-.04-.11-.05-.17Z"/>
  <path class="cls-2" d="m202.23,45.06s-.06-.05-.08-.08c0,0,0,0,0,0,0,0,0,0,0,0-3.43-3.39-6.91-6.78-10.34-10.17l-.08-.04s0-.03,0-.04l-.08-.04s-.02,0-.02,0c-.85-.61-1.7-1.25-2.51-1.86h-.05s-.02,0-.03,0c0-.03,0-.04,0-.08l-.04.04h0s-.04.04-.04.04c-.29-.21-.54-.42-.79-.63.01,0,.02,0,.03,0-5.99-3.08-12.03-6.16-17.98-9.29-1.9-.97-3.67-2.19-5.53-3.33.01.04.02.09.03.13-.02-.01-.05-.03-.07-.04-4.9-7.72-11.44-13.72-20.09-16.71C129.02-2.42,114.38-.02,100.38,6.64c-2,.95-3.99,1.98-5.97,3.08,0-.01.02-.02.02-.03-4.69,2.11-8.74,5.06-12.11,9.07.02-.01.05-.02.07-.03-.02.03-.05.05-.07.07,3.8-1.73,7.6-3.42,11.44-5.15,8.56-2.83,17.16-4.98,26.35-4.85,15.15.22,33.62,11.74,39.23,27.56,3.33,9.37,4.26,18.99,4.73,28.78,0,0,0,0,0,0v11.94s.03-.02.04-.03v.07c2.07-1.35,3.46-2.28,4.9-3.21,4.68-1.81,8.06-4.47,7.13-10.3-.38-2.49.04-5.11-.13-7.64-.72-9.54-2.15-18.95-6.5-27.64v-3.21c5.02,3.55,9.5,6.71,13.93,9.83.24.24.48.45.73.69,4.81,5.36,8.69,11.14,8.64,18.69.01,0,.03-.02.04-.02,0,.02,0,.04,0,.06-.04.03-.09.06-.12.09-.04.68-.04,1.35-.08,2.03,0,.04.02.08.03.12-.22.8-.42,1.61-.61,2.41,0,0,0,0-.01,0-2.24,5.61-5.61,10.34-10.26,14.18-2.41,1.98-4.85,3.84-7.3,5.74.09-.04.19-.07.28-.1-.04.03-.09.07-.13.1-.08.03-.16.05-.24.09h.08c-1.35.68-2.74,1.39-4.09,2.11-.18-.04-.31.05-.43.14,0,0,0,0,0-.02-2.87,1.31-5.78,2.62-8.69,3.88.05,0,.1,0,.15.01-.02,0-.04.02-.06.03-.02,0-.03,0-.05.01-.04,0-.08,0-.12-.01-.25.04-.46.13-.72.17,0,.02-.02.03-.02.04-7.13,2.09-14.22,4.21-21.4,6.34-.08,0-.15.02-.23.03-1.94.3-3.84.59-5.78.89-.02,0-.04.01-.06.02-5.47.67-10.98,1.29-16.53,1.92.03.01.06.03.08.04-.01,0-.03,0-.04,0-.02,0-.04,0-.06,0-.04-.01-.07-.03-.11-.05-1.56.13-3.12.3-4.68.42,0,0-.02,0-.03.01-.37-.05-.76-.13-1.11-.1-.01,0-.02,0-.04,0,0,0,0,0,0,0-14.55.64-28.99-.66-43.28-3.3-1.61-.3-3.23-.54-4.83-.87-.06-.01-.11-.02-.16-.04,0,0,0,0,0,0-1.26-.29-2.57-.57-3.87-.86-9.78-3.67-19.52-7.38-29.3-11.05h-.01s-.02,0-.03,0l-.38.38c4.08,3.08,8.13,6.13,12.21,9.17,0,.02.02.05.03.07,1.98,1.14,3.93,2.28,5.87,3.42.03,0,.06,0,.09,0,.03.01.05.03.07.04-.03,0-.05,0-.08,0,5.85,2.44,11.65,4.88,17.5,7.28l.15.11.08-.02.08.06.12-.03c.29.14.56.26.85.41.68.25,1.39.46,2.07.72.02,0,.03,0,.05,0,0,0,0,0,0,0,.04.01.08.03.11.04,5.99,1.31,12.03,2.66,18.02,3.97.46.04.89.04,1.35.08.38.1.76.23,1.14.36h.04c.45.16.9.29,1.35.31,12.28.46,24.56,1.18,36.85,1.27,5.15.04,10.3-1.18,15.45-1.86,5.91-1.1,11.81-2.15,18.19-3.33-.03.25-.05.45-.07.69-.12,1.05-.23,2.02-.36,2.93-.04.27-.06.55-.12.82-.97,4.69-1.98,9.33-3,13.97,0,0,0,.02,0,.03,0,0,0,.01,0,.02-.03.09-.06.18-.09.26-.01-.1-.02-.21-.04-.31-1.43,4.39-2.91,8.78-4.35,13.17.3.13.63.3.93.42,0,0,0,0,0-.01.04.02.08.04.12.05,2.03-3.33,4.01-6.67,6.04-10.04,3.55-7.77,7.01-15.53,10.64-23.21.63-1.35,1.86-2.66,3.12-3.38,4.35-2.53,8.86-4.81,13.29-7.17l.13-.04c1.52-.97,3-1.94,4.52-2.87,2.41-2.07,4.77-4.14,7.17-6.2,1.6-1.94,3.21-3.93,4.81-5.87.21-.38.42-.8.68-1.18,5.74-8.31,5.15-20.05-1.39-28.28Zm-14.05-12.83s-.05,0-.07.01c0,0-.01,0-.02-.01h.01s-.01.02-.02.02c-.02-.01-.04-.02-.06-.03.04-.01.08,0,.11-.02l.03.03Z"/>
  <g>
    <path class="cls-1" d="m118.53,146.06l-1.65-.72c-2.49-1.06-3.88-2.28-3.88-4.47,0-2.45,1.98-3.88,4.56-3.88,1.05,0,1.96.22,2.86.66l.77,4.36h2.91l.25-5.15c-1.77-1.22-4.09-1.98-6.71-1.98-5.32,0-8.99,2.7-8.99,7.17,0,4.05,2.62,6.29,6.8,8.06l1.52.68c2.79,1.14,4.01,2.15,4.01,4.39,0,2.49-1.9,4.09-5.11,4.18-1.55,0-2.68-.3-3.86-.86l-.74-4.54h-2.91l-.21,5.49c1.94,1.22,4.98,1.98,7.81,1.98,5.87,0,9.45-2.95,9.45-7.43,0-3.71-1.94-5.87-6.88-7.93Z"/>
    <path class="cls-1" d="m146.56,152.72v-3.97c0-4.68-1.9-6.75-5.19-6.8-2.29,0-4.51,1.2-6.5,3.44v-6.86l.17-5.36-.59-.34-6.8,1.73v1.48l2.74.38h.04v16.29c0,1.67-.02,4.07-.06,5.96l-2.51.5v1.56h9.37v-1.56l-2.17-.45c-.04-1.89-.06-4.33-.06-6.01v-5.39c1.56-1.42,2.96-2.17,4.39-2.17,1.9,0,2.62.97,2.62,3.97v3.59c0,1.72-.02,4.09-.06,5.96l-2.47.49v1.56h9.41v-1.56l-2.26-.46c-.04-1.87-.06-4.27-.06-6Z"/>
    <path class="cls-1" d="m163.61,142c-2.08,0-4.28,1.94-5.36,5.38v-.27l-.38-4.73-.59-.38-6.37,2.41v1.39l2.66.34c.08,1.52.13,2.45.13,4.56v2.03c0,1.67-.02,4.08-.06,5.98l-2.43.47h-.04v1.56h10.21v-1.56l-3.06-.6c-.04-1.87-.06-4.19-.06-5.82v-2.53h.04c.55-2.09,1.57-3.77,2.92-4.92l.33.37c.8.89,1.6,1.35,2.62,1.35,1.52,0,2.41-1.06,2.45-2.95-.38-1.35-1.6-2.07-3-2.07Z"/>
    <path class="cls-1" d="m177.28,142c-4.9,0-9.16,3.55-9.16,9.62s4.01,9.62,9.16,9.62,9.16-3.5,9.16-9.62-4.31-9.62-9.16-9.62Zm0,17.39c-2.79,0-4.22-2.45-4.22-7.72s1.48-7.81,4.22-7.81,4.22,2.57,4.22,7.81-1.52,7.72-4.22,7.72Z"/>
    <path class="cls-1" d="m198.43,142c-4.9,0-9.16,3.55-9.16,9.62s4.01,9.62,9.16,9.62,9.16-3.5,9.16-9.62-4.31-9.62-9.16-9.62Zm0,17.39c-2.79,0-4.22-2.45-4.22-7.72s1.48-7.81,4.22-7.81,4.22,2.57,4.22,7.81-1.52,7.72-4.22,7.72Z"/>
    <path class="cls-1" d="m228.52,142.34l-.59-.38-4.3,1.65c-1.25-1.04-3.07-1.61-5.36-1.61-4.64,0-7.43,2.41-7.43,6.2,0,2.43,1.09,4.24,3.07,5.26-1.85,1.69-2.77,3.11-2.77,4.54s.79,2.41,2.42,2.97c-2.44,1.19-3.48,2.48-3.48,4.08,0,2.53,2.11,4.56,8.02,4.56,6.71,0,10.21-3.21,10.21-6.8,0-3.21-1.98-5.23-6.92-5.23h-4.73c-1.69,0-2.19-.59-2.19-1.56,0-.78.29-1.39.74-2.04.89.26,1.89.4,3.02.4,4.64,0,7.39-2.45,7.39-6.16,0-1.24-.31-2.31-.84-3.21h3.75v-2.66Zm-11.56,19.29h4.22c2.41,0,3.29,1.18,3.29,2.57,0,1.9-2.11,3.38-5.99,3.38-3.21,0-4.98-.97-4.98-3.33,0-1.09.32-1.89,1.04-2.84.69.14,1.49.22,2.42.22Zm1.22-8.99c-2.07,0-3.12-1.73-3.12-4.47s1.18-4.52,3.25-4.56c2.03,0,3.17,1.73,3.17,4.43s-1.18,4.6-3.29,4.6Z"/>
  </g>
</svg>